# xmcd CD database file
#
# Track frame offsets:
#	150
#	22485
#	37032
#	51851
#	68880
#	87701
#	100970
#	118801
#	135480
#	154338
#
# Disc length: 2255 seconds
#
# Revision: 0
# Processed by: cddbd v1.5.2PL0 Copyright (c) Steve Scherf et al.
# Submitted via: CDex 1.78
#
DISCID=9608cd0a
DTITLE=Jim Lindsay - A Message for the Young and a Story from the Old
DYEAR=2008
DGENRE=Country
TTITLE0=Jim Lindsay - Old Love
TTITLE1=Jim Lindsay - Little Bit Here
TTITLE2=Jim Lindsay - Face to Face
TTITLE3=Jim Lindsay - The All American Stud
TTITLE4=Jim Lindsay - Flags of our Fathers
TTITLE5=Jim Lindsay - The Fox
TTITLE6=Jim Lindsay - Ways of a Drifter
TTITLE7=Jim Lindsay - I Wish
TTITLE8=Jim Lindsay - Wasn't I Lucky
TTITLE9=Jim Lindsay - A Message for the Young
EXTD=YEAR: 2008
EXTT0=
EXTT1=
EXTT2=
EXTT3=
EXTT4=
EXTT5=
EXTT6=
EXTT7=
EXTT8=
EXTT9=
PLAYORDER=
